<?xml version="1.0" encoding="UTF-8" standalone="no"?><svg xmlns="http://www.w3.org/2000/svg" xmlns:xlink="http://www.w3.org/1999/xlink" contentStyleType="text/css" height="379px" preserveAspectRatio="none" style="width:281px;height:379px;background:#FFFFFF;" version="1.1" viewBox="0 0 281 379" width="281px" zoomAndPan="magnify"><defs/><g><!--MD5=[3cc265092629fe4c03bbad0ba552afb7]
entity DriversDB--><g id="elem_DriversDB"><path d="M6,307 C6,297 50.5,297 50.5,297 C50.5,297 95,297 95,307 L95,332.2969 C95,342.2969 50.5,342.2969 50.5,342.2969 C50.5,342.2969 6,342.2969 6,332.2969 L6,307 " fill="#F1F1F1" style="stroke:#181818;stroke-width:0.5;"/><path d="M6,307 C6,317 50.5,317 50.5,317 C50.5,317 95,317 95,307 " fill="none" style="stroke:#181818;stroke-width:0.5;"/><text fill="#000000" font-family="sans-serif" font-size="14" lengthAdjust="spacing" textLength="69" x="16" y="333.9951">DriversDB</text></g><!--MD5=[a728b44908a195432ff2ba408cc70077]
class DataMapper--><g id="elem_DataMapper"><rect codeLine="5" fill="#F1F1F1" height="105.1875" id="DataMapper" rx="2.5" ry="2.5" style="stroke:#181818;stroke-width:0.5;" width="145" x="54" y="10"/><ellipse cx="76.65" cy="26" fill="#B4A7E5" rx="11" ry="11" style="stroke:#181818;stroke-width:1.0;"/><path d="M72.5719,21.7656 L72.5719,19.6094 L79.9625,19.6094 L79.9625,21.7656 L77.4938,21.7656 L77.4938,29.8438 L79.9625,29.8438 L79.9625,32 L72.5719,32 L72.5719,29.8438 L75.0406,29.8438 L75.0406,21.7656 L72.5719,21.7656 Z " fill="#000000"/><text fill="#000000" font-family="sans-serif" font-size="14" font-style="italic" lengthAdjust="spacing" textLength="84" x="92.35" y="30.8467">DataMapper</text><rect fill="#FFFFFF" height="15.9688" style="stroke:#181818;stroke-width:1.0;stroke-dasharray:2.0,2.0;" width="10" x="192" y="7"/><text fill="#000000" font-family="sans-serif" font-size="12" font-style="italic" lengthAdjust="spacing" textLength="8" x="193" y="19.1387">E</text><line style="stroke:#181818;stroke-width:0.5;" x1="55" x2="198" y1="42" y2="42"/><ellipse cx="65" cy="55.6484" fill="#84BE84" rx="3" ry="3" style="stroke:#038048;stroke-width:1.0;"/><text fill="#000000" font-family="sans-serif" font-size="14" lengthAdjust="spacing" textLength="109" x="74" y="58.9951">insert(entity : E)</text><ellipse cx="65" cy="71.9453" fill="#84BE84" rx="3" ry="3" style="stroke:#038048;stroke-width:1.0;"/><text fill="#000000" font-family="sans-serif" font-size="14" lengthAdjust="spacing" textLength="119" x="74" y="75.292">update(entity : E)</text><ellipse cx="65" cy="88.2422" fill="#84BE84" rx="3" ry="3" style="stroke:#038048;stroke-width:1.0;"/><text fill="#000000" font-family="sans-serif" font-size="14" lengthAdjust="spacing" textLength="114" x="74" y="91.5889">delete(entity : E)</text><ellipse cx="65" cy="104.5391" fill="#84BE84" rx="3" ry="3" style="stroke:#038048;stroke-width:1.0;"/><text fill="#000000" font-family="sans-serif" font-size="14" lengthAdjust="spacing" textLength="119" x="74" y="107.8857">findAll() : List&lt;E&gt;</text></g><!--MD5=[9f97dc9de49fb7a74802e3c35a92ff18]
class DriverMapper--><g id="elem_DriverMapper"><rect codeLine="12" fill="#F1F1F1" height="32" id="DriverMapper" rx="2.5" ry="2.5" style="stroke:#181818;stroke-width:0.5;" width="124" x="64.5" y="175"/><ellipse cx="79.5" cy="191" fill="#ADD1B2" rx="11" ry="11" style="stroke:#181818;stroke-width:1.0;"/><path d="M82.4688,196.6406 Q81.8906,196.9375 81.25,197.0859 Q80.6094,197.2344 79.9063,197.2344 Q77.4063,197.2344 76.0859,195.5859 Q74.7656,193.9375 74.7656,190.8125 Q74.7656,187.6875 76.0859,186.0313 Q77.4063,184.375 79.9063,184.375 Q80.6094,184.375 81.2578,184.5313 Q81.9063,184.6875 82.4688,184.9844 L82.4688,187.7031 Q81.8438,187.125 81.25,186.8516 Q80.6563,186.5781 80.0313,186.5781 Q78.6875,186.5781 78,187.6484 Q77.3125,188.7188 77.3125,190.8125 Q77.3125,192.9063 78,193.9766 Q78.6875,195.0469 80.0313,195.0469 Q80.6563,195.0469 81.25,194.7734 Q81.8438,194.5 82.4688,193.9219 L82.4688,196.6406 Z " fill="#000000"/><text fill="#000000" font-family="sans-serif" font-size="14" lengthAdjust="spacing" textLength="92" x="93.5" y="195.8467">DriverMapper</text></g><!--MD5=[eee9d396a8aca12c6c152931e8dc1ab6]
class Driver--><g id="elem_Driver"><rect codeLine="14" fill="#F1F1F1" height="105.1875" id="Driver" rx="2.5" ry="2.5" style="stroke:#181818;stroke-width:0.5;" width="144" x="130.5" y="267"/><ellipse cx="178.25" cy="283" fill="#ADD1B2" rx="11" ry="11" style="stroke:#181818;stroke-width:1.0;"/><path d="M182.3594,289 L174.6406,289 L174.6406,276.6094 L182.3594,276.6094 L182.3594,278.7656 L177.0938,278.7656 L177.0938,281.4375 L181.8594,281.4375 L181.8594,283.5938 L177.0938,283.5938 L177.0938,286.8438 L182.3594,286.8438 L182.3594,289 Z " fill="#000000"/><text fill="#000000" font-family="sans-serif" font-size="14" lengthAdjust="spacing" textLength="40" x="198.75" y="287.8467">Driver</text><line style="stroke:#181818;stroke-width:0.5;" x1="131.5" x2="273.5" y1="299" y2="299"/><ellipse cx="141.5" cy="312.6484" fill="none" rx="3" ry="3" style="stroke:#038048;stroke-width:1.0;"/><text fill="#000000" font-family="sans-serif" font-size="14" lengthAdjust="spacing" textLength="77" x="150.5" y="315.9951">uuid : UUID</text><ellipse cx="141.5" cy="328.9453" fill="none" rx="3" ry="3" style="stroke:#038048;stroke-width:1.0;"/><text fill="#000000" font-family="sans-serif" font-size="14" lengthAdjust="spacing" textLength="92" x="150.5" y="332.292">name : String</text><ellipse cx="141.5" cy="345.2422" fill="none" rx="3" ry="3" style="stroke:#038048;stroke-width:1.0;"/><text fill="#000000" font-family="sans-serif" font-size="14" lengthAdjust="spacing" textLength="77" x="150.5" y="348.5889">date : Date</text><ellipse cx="141.5" cy="361.5391" fill="none" rx="3" ry="3" style="stroke:#038048;stroke-width:1.0;"/><text fill="#000000" font-family="sans-serif" font-size="14" lengthAdjust="spacing" textLength="118" x="150.5" y="364.8857">fastestLap : Time</text></g><!--MD5=[90bf40644ce0c7a154bedcc0483507fb]
reverse link DataMapper to DriverMapper--><g id="link_DataMapper_DriverMapper"><path d="M126.5,135.37 C126.5,150.28 126.5,164.53 126.5,174.74 " fill="none" id="DataMapper-backto-DriverMapper" style="stroke:#181818;stroke-width:1.0;stroke-dasharray:7.0,7.0;"/><polygon fill="none" points="119.5,135.32,126.5,115.32,133.5,135.32,119.5,135.32" style="stroke:#181818;stroke-width:1.0;"/></g><!--MD5=[dcc73d8713c18fa8666863484be29ef7]
link DriverMapper to Driver--><g id="link_DriverMapper_Driver"><path codeLine="25" d="M135.52,207.01 C143.81,220.82 156.65,242.18 168.87,262.52 " fill="none" id="DriverMapper-to-Driver" style="stroke:#181818;stroke-width:1.0;stroke-dasharray:7.0,7.0;"/><polygon fill="#181818" points="171.47,266.85,170.2695,257.0746,168.8975,262.5625,163.4096,261.1905,171.47,266.85" style="stroke:#181818;stroke-width:1.0;"/></g><!--MD5=[25fd15d0ec7dc8bf5501568c151ec245]
link DriverMapper to DriversDB--><g id="link_DriverMapper_DriversDB"><path codeLine="26" d="M117.48,207.01 C104.85,228.04 81.68,266.6 66.18,292.4 " fill="none" id="DriverMapper-to-DriversDB" style="stroke:#181818;stroke-width:1.0;stroke-dasharray:7.0,7.0;"/><polygon fill="#181818" points="63.57,296.74,71.6443,291.1003,66.153,292.4588,64.7944,286.9675,63.57,296.74" style="stroke:#181818;stroke-width:1.0;"/></g><!--MD5=[064ef5b9bd5b737cd15cad3f0502ac40]
@startuml


    hide empty members

    interface DataMapper <E> {
        + insert(entity : E)  
        + update(entity : E)  
        + delete(entity : E)  
        + findAll() : List<E>         
    }

    class DriverMapper implements DataMapper

    entity Driver {
        + uuid : UUID
        + name : String
        + date : Date
        + fastestLap : Time
    }

    package DriversDB <<Database>> {

    }

    DriverMapper ..> Driver
    DriverMapper ..> DriversDB

@enduml

PlantUML version 1.2022.7(Mon Aug 22 14:01:30 BRT 2022)
(GPL source distribution)
Java Runtime: Java(TM) SE Runtime Environment
JVM: Java HotSpot(TM) 64-Bit Server VM
Default Encoding: UTF-8
Language: en
Country: US
--></g></svg>